<?xml version="1.0" encoding="utf-8"?>
<!-- Generator: Adobe Illustrator 20.0.0, SVG Export Plug-In . SVG Version: 6.00 Build 0)  -->
<svg version="1.1" id="icon-approve" xmlns="http://www.w3.org/2000/svg" xmlns:xlink="http://www.w3.org/1999/xlink" x="0px"
	 y="0px" viewBox="0 0 16.902 17.872" style="enable-background:new 0 0 16.902 17.872;" xml:space="preserve">
<style type="text/css">
	.st0{fill:#606163;}
</style>
<title>delete</title>
<g>
	<path class="st0" d="M13.418,2.115h-1.043V0.508c0-0.276-0.224-0.5-0.5-0.5s-0.5,0.224-0.5,0.5v1.606H5.561V0.508
		c0-0.276-0.224-0.5-0.5-0.5s-0.5,0.224-0.5,0.5v1.606H3.517c-1.93,0-3.5,1.57-3.5,3.5v8.766c0,1.93,1.57,3.5,3.5,3.5h9.901
		c1.93,0,3.5-1.57,3.5-3.5V5.615C16.918,3.685,15.348,2.115,13.418,2.115z M15.918,14.38c0,1.379-1.121,2.5-2.5,2.5H3.517
		c-1.378,0-2.5-1.121-2.5-2.5V5.615c0-1.378,1.122-2.5,2.5-2.5h1.043v0.87c0,0.276,0.224,0.5,0.5,0.5s0.5-0.224,0.5-0.5v-0.87h5.815
		v0.87c0,0.276,0.224,0.5,0.5,0.5s0.5-0.224,0.5-0.5v-0.87h1.043c1.379,0,2.5,1.122,2.5,2.5V14.38z"/>
	<path class="st0" d="M8.468,5.349c-2.654,0-4.813,2.159-4.813,4.812s2.159,4.812,4.813,4.812c2.653,0,4.812-2.159,4.812-4.812
		S11.122,5.349,8.468,5.349z M8.468,13.973c-2.103,0-3.813-1.71-3.813-3.812c0-2.102,1.71-3.812,3.813-3.812
		c2.102,0,3.812,1.71,3.812,3.812C12.28,12.263,10.57,13.973,8.468,13.973z"/>
	<path class="st0" d="M9.742,8.287l-2.001,2.612L7.2,10.165c-0.163-0.223-0.478-0.271-0.699-0.105
		c-0.223,0.164-0.27,0.477-0.106,0.699l0.936,1.27c0.093,0.126,0.24,0.201,0.397,0.203c0.002,0,0.003,0,0.005,0
		c0.155,0,0.303-0.072,0.396-0.196l2.405-3.141c0.168-0.219,0.127-0.533-0.093-0.7C10.223,8.024,9.909,8.066,9.742,8.287z"/>
</g>
</svg>
