<?xml version="1.0" encoding="utf-8"?>
<!-- Generator: Adobe Illustrator 19.2.0, SVG Export Plug-In . SVG Version: 6.00 Build 0)  -->
<svg version="1.1" id="Layer_1" xmlns="http://www.w3.org/2000/svg" xmlns:xlink="http://www.w3.org/1999/xlink" x="0px" y="0px"
	 viewBox="0 0 7.7 9.1" style="enable-background:new 0 0 7.7 9.1;" xml:space="preserve">
<style type="text/css">
	.st0{fill:#E85754;}
</style>
<path class="st0" d="M7.5,6.4L4.8,4.5l2.5-2.1c0.2-0.2,0.3-0.5,0.1-0.8S6.8,1.4,6.6,1.6L4.4,3.4V0.5C4.4,0.2,4.2,0,3.8,0
	S3.3,0.2,3.3,0.5v3L0.9,1.8C0.6,1.7,0.3,1.7,0.1,2C-0.1,2.2,0,2.6,0.2,2.7l2.7,1.8L0.4,6.6C0.2,6.8,0.1,7.2,0.3,7.4
	c0.1,0.1,0.3,0.2,0.4,0.2c0.1,0,0.2,0,0.3-0.1l2.2-1.8v2.8c0,0.3,0.2,0.5,0.5,0.5s0.5-0.2,0.5-0.5v-3l2.4,1.7C6.9,7.3,7,7.4,7.1,7.4
	c0.2,0,0.3-0.1,0.5-0.2C7.8,6.9,7.7,6.5,7.5,6.4z"/>
</svg>
