<svg id="Layer_1" data-name="Layer 1" xmlns="http://www.w3.org/2000/svg" width="16.444" height="18" viewBox="0 0 16.444 18"><defs><style>.cls-1{fill:#606163;}</style></defs><title>delete</title><path class="cls-1" d="M15.956,2.619H11.38V1.342A1.344,1.344,0,0,0,10.037,0H6.468A1.344,1.344,0,0,0,5.125,1.342V2.619H0.488a0.488,0.488,0,0,0,0,.976H2.2v12.33A2.077,2.077,0,0,0,4.271,18H12.2a2.077,2.077,0,0,0,2.075-2.075V3.6h1.678A0.488,0.488,0,1,0,15.956,2.619ZM6.1,1.342A0.367,0.367,0,0,1,6.468.976h3.569a0.367,0.367,0,0,1,.366.366V2.619H6.1V1.342Zm7.2,14.583a1.1,1.1,0,0,1-1.1,1.1H4.271a1.1,1.1,0,0,1-1.1-1.1V3.6H13.3v12.33Z"/><path class="cls-1" d="M10.132,14.841a0.5,0.5,0,0,0,.5-0.5V6.306a0.5,0.5,0,0,0-1,0v8.033A0.5,0.5,0,0,0,10.132,14.841Z"/><path class="cls-1" d="M6.325,14.841a0.5,0.5,0,0,0,.5-0.5V6.306a0.5,0.5,0,1,0-1,0v8.033A0.5,0.5,0,0,0,6.325,14.841Z"/></svg>