<svg id="Layer_1" data-name="Layer 1" xmlns="http://www.w3.org/2000/svg" width="35.728" height="30.924" viewBox="0 0 35.728 30.924"><defs><style>.cls-1{fill:#a8e0f9;}</style></defs><title>icon-legal</title><path class="cls-1" d="M29.117,0H6.611A6.611,6.611,0,0,0,0,6.611V19.3a6.606,6.606,0,0,0,4.92,6.384,9.522,9.522,0,0,1-3.535,4.4c-0.53.4,0.191,0.843,1.648,0.843,2.257,0,6.278-1.065,10.148-5.013H29.117A6.611,6.611,0,0,0,35.728,19.3V6.611A6.611,6.611,0,0,0,29.117,0ZM25.283,17.992H10.445a1.793,1.793,0,0,1-1.983-1.481,1.793,1.793,0,0,1,1.983-1.481H25.283a1.793,1.793,0,0,1,1.983,1.481A1.793,1.793,0,0,1,25.283,17.992Zm0-7.16H10.445A1.793,1.793,0,0,1,8.462,9.351,1.793,1.793,0,0,1,10.445,7.87H25.283a1.793,1.793,0,0,1,1.983,1.481A1.793,1.793,0,0,1,25.283,10.832Z"/></svg>