<?xml version="1.0" encoding="utf-8"?>
<!-- Generator: Adobe Illustrator 20.0.0, SVG Export Plug-In . SVG Version: 6.00 Build 0)  -->
<svg version="1.1" id="icon-unapprove" xmlns="http://www.w3.org/2000/svg" xmlns:xlink="http://www.w3.org/1999/xlink" x="0px"
	 y="0px" viewBox="0 0 16.902 17.872" style="enable-background:new 0 0 16.902 17.872;" xml:space="preserve">
<style type="text/css">
	.st0{fill:#606163;}
</style>
<title>delete</title>
<g>
	<path class="st0" d="M13.402,2.106h-1.044V0.5c0-0.276-0.224-0.5-0.5-0.5s-0.5,0.224-0.5,0.5v1.606H5.543V0.5
		c0-0.276-0.224-0.5-0.5-0.5s-0.5,0.224-0.5,0.5v1.606H3.5c-1.93,0-3.5,1.57-3.5,3.5v8.765c0,1.93,1.57,3.5,3.5,3.5h9.902
		c1.93,0,3.5-1.57,3.5-3.5V5.606C16.902,3.677,15.332,2.106,13.402,2.106z M15.902,14.372c0,1.379-1.121,2.5-2.5,2.5H3.5
		c-1.378,0-2.5-1.121-2.5-2.5V5.606c0-1.378,1.122-2.5,2.5-2.5h1.043v0.87c0,0.276,0.224,0.5,0.5,0.5s0.5-0.224,0.5-0.5v-0.87h5.814
		v0.87c0,0.276,0.224,0.5,0.5,0.5s0.5-0.224,0.5-0.5v-0.87h1.044c1.379,0,2.5,1.122,2.5,2.5V14.372z"/>
	<path class="st0" d="M8.451,5.34c-2.654,0-4.812,2.159-4.812,4.812c0,2.653,2.159,4.812,4.812,4.812
		c2.653,0,4.812-2.159,4.812-4.812C13.263,7.499,11.104,5.34,8.451,5.34z M8.451,13.965c-2.102,0-3.812-1.71-3.812-3.812
		c0-2.102,1.71-3.812,3.812-3.812c2.103,0,3.812,1.71,3.812,3.812C12.263,12.255,10.553,13.965,8.451,13.965z"/>
	<path class="st0" d="M10.347,8.221c-0.2-0.19-0.517-0.183-0.707,0.017L8.451,9.483L7.262,8.237c-0.191-0.2-0.508-0.207-0.707-0.017
		c-0.2,0.191-0.207,0.507-0.017,0.707l1.221,1.279l-1.221,1.279c-0.19,0.2-0.183,0.517,0.017,0.707
		c0.097,0.093,0.221,0.139,0.345,0.139c0.132,0,0.263-0.052,0.362-0.154l1.189-1.246l1.189,1.246
		c0.098,0.103,0.229,0.154,0.361,0.154c0.124,0,0.248-0.046,0.346-0.139c0.199-0.19,0.207-0.507,0.016-0.707l-1.221-1.279
		l1.221-1.279C10.554,8.728,10.546,8.412,10.347,8.221z"/>
</g>
</svg>
