<?xml version="1.0" encoding="utf-8"?>
<!-- Generator: Adobe Illustrator 19.2.0, SVG Export Plug-In . SVG Version: 6.00 Build 0)  -->
<svg version="1.1" id="Layer_1" xmlns="http://www.w3.org/2000/svg" xmlns:xlink="http://www.w3.org/1999/xlink" x="0px" y="0px"
	 viewBox="0 0 18 14.7" style="enable-background:new 0 0 18 14.7;" xml:space="preserve">
<style type="text/css">
	.st0{fill:#606163;}
</style>
<path class="st0" d="M17.8,1.3l-1.1-1.1c-0.3-0.3-0.8-0.3-1.1,0l-3.1,3.1H2.2C1,3.3,0,4.3,0,5.5v7c0,1.2,1,2.2,2.2,2.2h11.5
	c1.2,0,2.2-1,2.2-2.2v-8l2-2C18.1,2.1,18.1,1.6,17.8,1.3z M14.8,12.5c0,0.6-0.5,1.2-1.2,1.2H2.2c-0.6,0-1.2-0.5-1.2-1.2v-7
	c0-0.6,0.5-1.2,1.2-1.2h9.2L8.8,6.9C8.6,7.1,8.5,7.4,8.4,7.6L8.1,8.8H3.8C3.5,8.8,3.3,9,3.3,9.3c0,0.3,0.2,0.5,0.5,0.5h4.9
	c0,0,0,0,0,0c0,0,0,0,0,0h0.1c0,0,0.1,0,0.1,0l1.6-0.2c0.3,0,0.6-0.2,0.8-0.4l3.5-3.6V12.5z M14.8,4.1l-0.2,0.2l-4,4.1
	c0,0-0.2,0.1-0.2,0.1L9.1,8.7l0.2-0.8c0-0.1,0.1-0.2,0.2-0.3l3.3-3.3l0.6-0.6l2.6-2.6l0.8,0.8L14.8,4.1z"/>
</svg>
